<?xml version="1.0" encoding="utf-8"?>
<!-- Generator: Adobe Illustrator 26.0.1, SVG Export Plug-In . SVG Version: 6.00 Build 0)  -->
<svg version="1.1" id="Layer_1" xmlns="http://www.w3.org/2000/svg" xmlns:xlink="http://www.w3.org/1999/xlink" x="0px" y="0px"
	 viewBox="0 0 259.2 259.2" style="enable-background:new 0 0 259.2 259.2;" xml:space="preserve">
<style type="text/css">
	.st0{fill:#FDFDFD;}
	.st1{fill:#FFCC00;}
	.st2{fill:#ED1C24;}
	.st3{display:none;}
	.st4{display:inline;fill:#FDFDFD;}
	.st5{display:inline;fill:#FFCC00;}
</style>
<g>
	<path class="st0" d="M88.01,101.42l-7.23,22.12l-8.11-22.12h-11.5l14.07,33.18l-0.81,1.57c-0.88,1.72-2.24,2.58-4.09,2.58
		c-0.8,0-1.54-0.14-2.25-0.44c-0.72-0.29-1.47-0.78-2.26-1.45l-4.65,7.73c1.54,1.22,3.14,2.11,4.77,2.67
		c1.64,0.57,3.39,0.85,5.28,0.85c3.23,0,5.93-0.77,8.11-2.29c2.18-1.53,3.92-3.89,5.22-7.08l1.79-4.57
		c-0.05-0.07-0.09-0.13-0.12-0.2c-1.45-2.6-2.17-5.62-2.17-9.05c0-3.49,0.73-6.55,2.2-9.22c1.47-2.65,3.54-4.71,6.22-6.16
		c1.27-0.68,2.63-1.2,4.09-1.56l2.57-6.57H88.01z"/>
	<path class="st0" d="M108.12,121.78H95.05c0.38-2.02,1.17-3.61,2.36-4.78c1.19-1.17,2.67-1.75,4.42-1.75c1.89,0,3.41,0.6,4.57,1.79
		C107.54,118.23,108.12,119.81,108.12,121.78z"/>
	<path class="st0" d="M131.16,107.55c-2.47,0-4.66,0.5-6.56,1.51c-1.91,1-3.47,2.49-4.69,4.46v-5.53h-11.19v0.49
		c2.29,0.81,4.23,2.08,5.81,3.82c2.97,3.27,4.46,7.75,4.46,13.45c0,0.88-0.02,1.54-0.07,2.01h-10.2v4.34
		c0.81-0.5,1.57-1.11,2.28-1.83l5.84,5.85c-1.76,1.97-3.88,3.47-6.37,4.49c-0.57,0.24-1.15,0.44-1.75,0.62v0.77h11.19v-17.98
		c0.22-1.92,0.92-3.48,2.11-4.65c1.19-1.17,2.71-1.78,4.56-1.82c1.76,0,3.16,0.56,4.21,1.67c1.05,1.11,1.57,2.62,1.57,4.56v18.22
		h7.44v-31.24C137.6,108.62,134.73,107.55,131.16,107.55z"/>
	<path class="st0" d="M108.73,127.75v4.34c-0.47,0.28-0.96,0.54-1.46,0.76c-1.35,0.59-2.78,0.87-4.23,0.87
		c-1.93,0-3.56-0.51-4.91-1.53c-1.34-1.02-2.28-2.5-2.83-4.43H108.73z"/>
	<path class="st0" d="M149.51,94.32c-1.11-1.11-2.52-1.67-4.24-1.67c-1.71,0-3.13,0.56-4.23,1.67c-1.12,1.11-1.67,2.55-1.67,4.31
		c0,1.71,0.55,3.13,1.67,4.27c1.11,1.13,2.52,1.7,4.23,1.7c1.72,0,3.13-0.57,4.24-1.7c1.11-1.14,1.67-2.56,1.67-4.27
		C151.18,96.87,150.62,95.43,149.51,94.32z"/>
	<path class="st0" d="M170.75,118.27c0.15,0.08,0.31,0.16,0.47,0.25l0.3-0.6C171.28,118.03,171.02,118.15,170.75,118.27z"/>
	<path class="st0" d="M169.9,117.84l0.28,0.7c0.19-0.09,0.38-0.18,0.57-0.27C170.46,118.12,170.18,117.97,169.9,117.84z
		 M169.9,117.84l0.28,0.7c0.19-0.09,0.38-0.18,0.57-0.27C170.46,118.12,170.18,117.97,169.9,117.84z M169.9,117.84l0.28,0.7
		c0.19-0.09,0.38-0.18,0.57-0.27C170.46,118.12,170.18,117.97,169.9,117.84z M169.9,117.84l0.28,0.7c0.19-0.09,0.38-0.18,0.57-0.27
		C170.46,118.12,170.18,117.97,169.9,117.84z M169.9,117.84l0.28,0.7c0.19-0.09,0.38-0.18,0.57-0.27
		C170.46,118.12,170.18,117.97,169.9,117.84z M169.9,117.84l0.28,0.7c0.19-0.09,0.38-0.18,0.57-0.27
		C170.46,118.12,170.18,117.97,169.9,117.84z M169.9,117.84l0.28,0.7c0.19-0.09,0.38-0.18,0.57-0.27
		C170.46,118.12,170.18,117.97,169.9,117.84z"/>
	<path class="st0" d="M186.84,127.27v2.96c-0.33,1.3-1.13,2.36-2.39,3.17c-1.26,0.81-2.73,1.23-4.39,1.23
		c-1.43,0-2.55-0.35-3.36-1.04c-0.82-0.69-1.23-1.62-1.23-2.79c0-2.35,1.57-3.52,4.72-3.52H186.84z"/>
	<path class="st0" d="M186.84,120.93v0.38h-8.86c-3.3,0.03-5.99,0.61-8.07,1.73c-0.14-0.08-0.28-0.15-0.42-0.22
		c-0.1-0.05-0.18-0.09-0.25-0.12c-0.16-0.07-0.17-0.07-0.18-0.08c-0.08-0.08,0.32-0.71,1.85-2.54c0.66-0.87,2.14-2.57,4.64-3.55
		c1.95-0.77,3.59-0.69,4.81-0.69c2.09,0,3.69,0.44,4.8,1.32C186.28,118.04,186.84,119.3,186.84,120.93z"/>
	<path class="st0" d="M175,111.22l-3.46,6.7c0,0,0,0-0.01,0c-0.26,0.11-0.51,0.24-0.78,0.35c-0.29-0.15-0.58-0.29-0.85-0.43
		c-3.81-1.86-6.96-2.78-9.49-2.78c-0.96,0-1.73,0.18-2.32,0.53c-0.59,0.36-0.88,0.89-0.88,1.6c0,0.76,0.46,1.36,1.38,1.83
		c0.92,0.45,2.39,0.97,4.4,1.51c2.42,0.71,4.44,1.41,6.06,2.1c0.29,0.12,0.58,0.27,0.85,0.42c-0.57,0.3-1.1,0.64-1.58,1.03
		c-2.24,1.8-3.36,4.32-3.36,7.54c0,3.18,1.04,5.75,3.12,7.7c0.41,0.39,0.85,0.73,1.32,1.04c-2.41,1.28-5.33,1.91-8.8,1.91
		c-2.89,0-5.65-0.41-8.29-1.23c-0.47-0.14-0.93-0.3-1.38-0.47v-9.03c1.27,0.72,2.58,1.31,3.92,1.77c2.12,0.74,4.12,1.1,6,1.1
		c1.09,0,1.96-0.17,2.6-0.53c0.65-0.36,0.98-0.87,0.98-1.54c0-0.83-0.47-1.49-1.41-1.94c-0.95-0.46-2.42-0.97-4.43-1.52
		c-2.39-0.71-4.36-1.41-5.91-2.1c-0.62-0.27-1.2-0.61-1.75-0.98v-15.69c2.59-1.88,5.88-2.83,9.93-2.83c2.47,0,4.91,0.33,7.32,1
		c1.05,0.29,2.07,0.64,3.08,1.06C172.54,109.86,173.79,110.49,175,111.22z"/>
</g>
<circle class="st1" cx="202.41" cy="120.38" r="6.48"/>
<path class="st2" d="M163.21,153.41c0.12,0.4,0.26,0.8,0.44,1.19c0.02-0.08,0.03-0.17,0.03-0.27
	C163.68,153.96,163.52,153.66,163.21,153.41z"/>
<g class="st3">
	<path class="st4" d="M86.2,162.8c-1.04-0.94-2.38-1.42-4.05-1.42c-1.71,0-3.07,0.48-4.08,1.42c-1.04,0.94-1.55,2.13-1.55,3.57
		c0,1.42,0.52,2.57,1.55,3.51c1.02,0.92,2.38,1.4,4.08,1.4c1.67,0,3.01-0.48,4.05-1.4c1.02-0.94,1.53-2.09,1.53-3.51
		C87.74,164.93,87.22,163.74,86.2,162.8z"/>
	<path class="st5" d="M97.78,193.3c0,0.52-0.23,0.94-0.69,1.27c-0.46,0.33-1.07,0.5-1.86,0.5c-1.02,0-1.86-0.25-2.55-0.73
		c-0.69-0.5-1.09-1.19-1.23-2.07h-9.3c0.13,1.84,0.77,3.47,1.88,4.93c0.77,1,1.73,1.84,2.88,2.51v1.57h-9.61v-27.46h9.61v1.9
		c-1,0.63-1.78,1.42-2.4,2.32c-0.88,1.32-1.32,2.8-1.32,4.45c0,1.88,0.48,3.39,1.44,4.51c0.67,0.77,1.44,1.4,2.28,1.86
		c0.36,0.21,0.73,0.38,1.11,0.54c1.32,0.48,2.95,0.92,4.91,1.32c1.73,0.38,2.97,0.75,3.72,1.07
		C97.4,192.12,97.78,192.61,97.78,193.3z"/>
	<path class="st4" d="M132.49,163.39c-1.02-0.96-2.38-1.44-4.03-1.44c-1.71,0-3.07,0.48-4.1,1.44c-1.02,0.94-1.53,2.13-1.53,3.57
		c0,1.4,0.52,2.57,1.53,3.51c1.04,0.92,2.4,1.38,4.1,1.38c1.65,0,3.01-0.46,4.03-1.38c1.04-0.94,1.55-2.11,1.55-3.51
		C134.04,165.52,133.53,164.33,132.49,163.39z"/>
	<path class="st5" d="M118.84,174.05v3.82c-0.75-1.27-1.82-2.28-3.18-3.03c-1.38-0.75-3.01-1.13-4.91-1.13
		c-2.19,0-4.16,0.58-5.94,1.73c-0.54,0.35-1.04,0.73-1.5,1.15c1.92,1.73,3.03,3.97,3.34,6.73h-8.67c-0.17-0.88-0.56-1.55-1.15-2.03
		c-0.61-0.48-1.42-0.71-2.44-0.71c-0.77,0-1.38,0.15-1.78,0.44c-0.4,0.29-0.61,0.71-0.61,1.23c0,0.65,0.38,1.15,1.13,1.5
		c0.75,0.35,1.96,0.69,3.62,1.05c0.88,0.19,1.69,0.38,2.44,0.59c0.96,0.25,1.78,0.52,2.53,0.82c1.32,0.52,2.49,1.36,3.49,2.51
		c1,1.17,1.48,2.74,1.48,4.74c0,1.59-0.46,3.03-1.38,4.3c-0.44,0.61-0.98,1.15-1.59,1.61c0.35,0.29,0.71,0.56,1.09,0.81
		c1.78,1.13,3.76,1.71,5.94,1.71c1.86,0,3.49-0.38,4.87-1.13c1.4-0.75,2.47-1.76,3.22-3.03v3.82h4.77V174.4h4.81v-0.35H118.84z
		 M117.38,191.98c-0.96,1.02-2.15,1.51-3.55,1.51c-1.44,0-2.63-0.52-3.57-1.53c-0.96-1.04-1.42-2.44-1.42-4.2
		c0-1.78,0.46-3.18,1.42-4.18c0.94-1,2.13-1.5,3.57-1.5c1.4,0,2.59,0.52,3.55,1.51c0.98,1.02,1.46,2.4,1.46,4.16
		C118.84,189.57,118.36,190.97,117.38,191.98z"/>
	<path class="st5" d="M148.21,174.05v3.82c-0.75-1.27-1.8-2.28-3.18-3.03c-1.36-0.75-2.99-1.13-4.89-1.13
		c-2.19,0-4.18,0.58-5.96,1.73c-0.35,0.21-0.67,0.46-0.98,0.71v23.3c0.31,0.27,0.63,0.52,0.98,0.73c1.78,1.13,3.78,1.71,5.96,1.71
		c1.86,0,3.49-0.38,4.87-1.13c1.38-0.75,2.45-1.76,3.2-3.03v3.82h3.76v-27.48H148.21z M146.78,191.98
		c-0.96,1.02-2.15,1.51-3.55,1.51c-1.44,0-2.63-0.52-3.59-1.53c-0.94-1.04-1.42-2.44-1.42-4.2c0-1.78,0.48-3.18,1.42-4.18
		c0.96-1,2.15-1.5,3.59-1.5c1.4,0,2.59,0.52,3.55,1.51c0.96,1.02,1.44,2.4,1.44,4.16C148.21,189.57,147.73,190.97,146.78,191.98z"/>
	<path class="st5" d="M177.49,177.31c-1.84-2.11-4.33-3.16-7.46-3.16c-1.9,0-3.57,0.38-5.02,1.15c-1.46,0.77-2.61,1.78-3.45,3.03
		v-12.69h-9.59v8.42h5.85v27.48h-5.85v0.35h9.59v-14.75c0-1.57,0.4-2.8,1.23-3.7c0.82-0.88,1.94-1.34,3.37-1.34
		c1.38,0,2.47,0.46,3.28,1.34c0.82,0.9,1.23,2.13,1.23,3.7v14.75h9.61v-16.01C180.27,182.28,179.35,179.42,177.49,177.31z"/>
</g>
</svg>
